<?xml version="1.0" encoding="iso-8859-1"?>
<!-- Generator: Adobe Illustrator 16.0.0, SVG Export Plug-In . SVG Version: 6.00 Build 0)  -->
<!DOCTYPE svg PUBLIC "-//W3C//DTD SVG 1.1//EN" "http://www.w3.org/Graphics/SVG/1.1/DTD/svg11.dtd">
<svg version="1.1" id="Capa_1" xmlns="http://www.w3.org/2000/svg" xmlns:xlink="http://www.w3.org/1999/xlink" x="0px" y="0px"
	 width="683.721px" height="683.721px" viewBox="0 0 683.721 683.721" style="enable-background:new 0 0 683.721 683.721;"
	 xml:space="preserve">
<g>
	<g>
		<path d="M646.019,604.816V72.985c0-40.928-32.9-72.985-74.901-72.985H213.643c-42.417,0-78.251,33.42-78.251,72.981V229.35
			c0,4.777,3.877,8.655,8.654,8.655h38.946c4.777,0,8.655-3.877,8.655-8.655V72.981c0-6.82,8.568-16.726,21.996-16.726h357.469
			c13.684,0,18.646,10.005,18.646,16.726V610.68c0,6.746-4.963,16.787-18.646,16.787H213.643c-13.428,0-21.996-9.941-21.996-16.787
			v-151.98c0-4.777-3.877-8.654-8.655-8.654h-38.946c-4.777,0-8.654,3.877-8.654,8.654v151.98c0,39.596,35.834,73.041,78.251,73.041
			h357.469c43.399,0,76.396-31.594,76.746-73.49C647.88,608.262,647.222,606.354,646.019,604.816z M571.117,666.412H213.643
			c-33.035,0-60.942-25.523-60.942-55.732V467.354h21.637V610.68c0,16.467,15.795,34.096,39.306,34.096h357.469
			c22.507,0,35.956-17.336,35.956-34.096V72.981c0.004-16.729-13.445-34.035-35.951-34.035H213.643
			c-23.511,0-39.306,17.599-39.306,34.035v147.714h-21.637V72.981c0-30.175,27.907-55.671,60.942-55.671h357.469
			c32.3,0,57.598,24.454,57.598,55.671v537.175c0,1.861,0.588,3.588,1.588,4.998C627.537,644.711,602.936,666.412,571.117,666.412z"
			/>
		<path d="M226.266,540.996c0,3.416,2.004,6.504,5.12,7.898c1.133,0.51,2.341,0.758,3.535,0.758c2.086,0,4.146-0.754,5.769-2.199
			l223.135-199.166c1.839-1.641,2.891-3.99,2.891-6.457c0-2.466-1.052-4.816-2.891-6.456l-223.14-199.167
			c-2.549-2.271-6.188-2.843-9.299-1.441c-3.116,1.394-5.12,4.488-5.12,7.897v103.995H44.517c-4.777,0-8.655,3.877-8.655,8.655
			v181.749c0,4.777,3.877,8.654,8.655,8.654h181.749V540.996z M53.172,428.408v-164.44H234.92c4.777,0,8.655-3.877,8.655-8.654
			V161.99l201.485,179.84L243.575,521.672v-84.609c0-4.777-3.877-8.654-8.655-8.654H53.172z"/>
	</g>
</g>
<g>
</g>
<g>
</g>
<g>
</g>
<g>
</g>
<g>
</g>
<g>
</g>
<g>
</g>
<g>
</g>
<g>
</g>
<g>
</g>
<g>
</g>
<g>
</g>
<g>
</g>
<g>
</g>
<g>
</g>
</svg>
